<svg xmlns="http://www.w3.org/2000/svg" xmlns:xlink="http://www.w3.org/1999/xlink" width="202" height="51" viewBox="0 0 202 51">
    <defs>
        <path id="a" d="M0 .176v27.36h10.776V.175z"/>
    </defs>
    <g fill="none" fill-rule="evenodd">
        <path fill="#FFF167" d="M34.598 39.383c-2.976 0-5.388 2.45-5.388 5.471 0 3.022 2.412 5.472 5.388 5.472s5.388-2.45 5.388-5.472c0-3.022-2.412-5.471-5.388-5.471"/>
        <path fill="#F05F67" d="M49.326 0c-2.976 0-5.388 2.45-5.388 5.472 0 3.022 2.412 5.471 5.388 5.471s5.388-2.45 5.388-5.471C54.714 2.449 52.302 0 49.326 0"/>
        <path fill="#9FDBF0" d="M25.378 49.968a.313.313 0 0 0 .015-.092V33.122a.31.31 0 0 0-.308-.313h-10.16a.31.31 0 0 0-.308.313V49.876c0 .032.006.063.015.092h-.323v.441h11.392v-.441h-.323zM54.699 33.268a.313.313 0 0 0 .015-.092V16.422a.31.31 0 0 0-.308-.312h-10.16a.31.31 0 0 0-.308.313v16.753c0 .033.006.063.015.092h-.323v.442h11.392v-.442H54.7z"/>
        <path fill="#F05F67" d="M69.038 49.565a.321.321 0 0 0 .015-.093V32.718a.31.31 0 0 0-.307-.312H58.585a.31.31 0 0 0-.308.313v16.753c0 .033.006.063.015.093h-.323v.441h11.392v-.441h-.323zM39.971 35.339a.313.313 0 0 0 .015-.093V21.802a.31.31 0 0 0-.308-.313h-10.16a.31.31 0 0 0-.308.313v13.444c0 .033.006.063.015.093h-.323v.44h11.392v-.44h-.323z"/>
        <path fill="#FFF167" d="M84.541 49.63a.31.31 0 0 0 .016-.093V36.092a.31.31 0 0 0-.308-.312H74.088a.31.31 0 0 0-.308.312v13.445a.31.31 0 0 0 .015.092h-.322v.442h11.392v-.442h-.324z"/>
        <path fill="#478CCA" d="M69.038 28.193a.321.321 0 0 0 .015-.092V14.656a.31.31 0 0 0-.307-.312H58.585a.31.31 0 0 0-.308.312v13.445c0 .032.006.063.015.092h-.323v.441h11.392v-.44h-.323z"/>
        <path fill="#80C78E" d="M25.378 28.405a.313.313 0 0 0 .015-.092V14.87a.31.31 0 0 0-.308-.313h-10.16a.31.31 0 0 0-.308.313v13.444c0 .033.006.063.015.092h-.323v.442h11.392v-.442h-.323z"/>
        <path fill="#9FDBF0" d="M39.971 17.445a.313.313 0 0 0 .015-.092V.598a.31.31 0 0 0-.308-.312h-10.16a.31.31 0 0 0-.308.313v16.754c0 .032.006.063.015.092h-.323v.441h11.392v-.441h-.323z"/>
        <path fill="#80C78E" d="M54.699 49.565a.313.313 0 0 0 .015-.092V37.409a.31.31 0 0 0-.308-.313h-10.16a.31.31 0 0 0-.308.313v12.064c0 .032.006.062.015.092h-.323v.441h11.392v-.441H54.7z"/>
        <g transform="translate(0 23.24)">
            <mask id="b" fill="#fff">
                <use xlink:href="#a"/>
            </mask>
            <path fill="#478CCA" d="M5.388.176C2.412.176 0 2.626 0 5.648v21.887h10.776V5.648c0-3.022-2.412-5.472-5.388-5.472" mask="url(#b)"/>
        </g>
        <g fill="#ED845A">
            <path d="M113.932 21.045c2.22 0 4.022-1.873 4.022-4.314 0-2.364-1.801-4.176-4.022-4.176-2.236 0-4.038 1.812-4.038 4.176 0 2.441 1.802 4.314 4.038 4.314m0-9.84c3.168 0 5.637 2.41 5.637 5.526 0 3.194-2.469 5.68-5.637 5.68-3.183 0-5.637-2.486-5.637-5.68 0-3.116 2.454-5.527 5.637-5.527M126.314 16.9c.497 0 .885-.077 1.227-.215.699-.307 1.103-.998 1.103-1.934 0-.875-.357-1.52-.979-1.843-.341-.184-.807-.261-1.335-.261h-2.05V16.9h2.034zm-4.954 4.13h1.367v-8.46h-1.367v-1.182h5.11c.667 0 1.335.046 1.879.292 1.134.476 1.863 1.627 1.863 3.07 0 1.52-.807 2.749-2.065 3.179-.513.184-1.04.23-1.646.23h-2.22v2.871h1.381v1.198h-4.302V21.03zM136.84 16.9c.497 0 .885-.077 1.226-.215.7-.307 1.103-.998 1.103-1.934 0-.875-.357-1.52-.978-1.843-.342-.184-.808-.261-1.336-.261h-2.05V16.9h2.035zm-4.954 4.13h1.366v-8.46h-1.366v-1.182h5.109c.668 0 1.335.046 1.879.292 1.134.476 1.863 1.627 1.863 3.07 0 1.52-.807 2.749-2.065 3.179-.512.184-1.04.23-1.646.23h-2.22v2.871h1.381v1.198h-4.301V21.03zM142.411 21.03h1.367v-8.46h-1.367v-1.182h4.302v1.182h-1.383v8.46h1.383v1.198h-4.302zM148.717 21.03h1.366l.7-8.46h-1.398v-1.182h3.106l2.81 6.602c.171.445.249.783.249.783h.031s.078-.338.248-.783l2.811-6.602h3.106v1.182h-1.397l.698 8.46h1.367v1.198h-4.224V21.03h1.32l-.497-6.479c-.016-.337.047-.89.047-.89h-.047s-.124.522-.249.829l-2.516 5.696h-1.366l-2.516-5.696c-.124-.307-.248-.83-.248-.83h-.047s.062.554.047.891l-.497 6.48h1.32v1.197h-4.224V21.03zM164.458 21.03h1.367v-8.46h-1.367v-1.182h4.302v1.182h-1.383v8.46h1.383v1.198h-4.302zM172.213 18.973v.799c0 .798 1.04 1.273 2.19 1.273 1.258 0 2.174-.582 2.174-1.658 0-1.259-1.29-1.673-2.64-2.196-1.445-.537-2.92-1.15-2.92-3.07 0-2.042 1.662-2.917 3.51-2.917 1.646 0 3.323.614 3.323 1.796v1.275h-1.444v-.752c0-.63-.978-.968-1.88-.968-1.07 0-1.925.491-1.925 1.49 0 1.15 1.103 1.535 2.33 1.995 1.615.6 3.214 1.213 3.214 3.225 0 2.072-1.708 3.147-3.743 3.147-1.708 0-3.618-.753-3.618-2.303v-1.136h1.429zM180.107 21.03h1.367v-8.46h-1.367v-1.182h7.936v2.518h-1.351v-1.259h-3.665v3.486h3.882v1.258h-3.882v3.578h3.929v-1.305h1.35v2.564h-8.199zM190.43 21.03h1.367v-8.46h-1.366v-1.182h2.903l5.39 7.769c.185.307.372.783.372.783h.046s-.077-.537-.077-.875V12.57h-1.398v-1.182H202v1.182h-1.382v9.658h-1.522l-5.389-7.77c-.202-.306-.373-.782-.373-.782h-.046s.077.538.062.875v6.48h1.414v1.197h-4.333V21.03zM110.547 39.453h1.382V31.07h-2.578v1.69H108V29.81h9.41v2.948h-1.35v-1.69h-2.578v8.384h1.382v1.198h-4.317zM124.68 35.814l-1.336-3.761c-.155-.446-.186-.83-.186-.83h-.047s-.047.384-.186.83l-1.351 3.761h3.105zm-6.974 3.64h1.057l3.494-9.643h1.755l3.494 9.642h1.056v1.198h-3.805v-1.198h1.165l-.855-2.41h-3.882l-.854 2.41h1.18v1.198h-3.805v-1.198zM130.409 39.453h1.366V31.07h-1.366V29.81h4.302v1.259h-1.383v8.321h3.82v-1.75h1.367v3.01h-8.106zM145.824 39.468c2.22 0 4.022-1.873 4.022-4.314 0-2.364-1.801-4.176-4.022-4.176-2.236 0-4.038 1.812-4.038 4.176 0 2.441 1.802 4.314 4.038 4.314m0-9.841c3.168 0 5.637 2.41 5.637 5.527 0 3.194-2.469 5.68-5.637 5.68-3.183 0-5.637-2.486-5.637-5.68 0-3.117 2.454-5.527 5.637-5.527"/>
        </g>
    </g>
</svg>
